name D:\school\WTK\thesis\model\3dpredictsim\Results\MidTarsalJoint\Fal_s1_bCst_PF_Natali2010_ls150_MT_k200_d050_MTP_T5_ig24.mot
datacolumns 128
datarows 4
range 1.69968112 1.73367475
endheader
time	pelvis_tilt	pelvis_list	pelvis_rotation	pelvis_tx	pelvis_ty	pelvis_tz	hip_flexion_l	hip_adduction_l	hip_rotation_l	hip_flexion_r	hip_adduction_r	hip_rotation_r	knee_angle_l	knee_angle_r	ankle_angle_l	ankle_angle_r	subtalar_angle_l	subtalar_angle_r	mtj_angle_l	mtj_angle_r	mtp_angle_l	mtp_angle_r	lumbar_extension	lumbar_bending	lumbar_rotation	arm_flex_l	arm_add_l	arm_rot_l	arm_flex_r	arm_add_r	arm_rot_r	elbow_flex_l	elbow_flex_r	pro_sup_l	pro_sup_r	glut_med1_l/activation	glut_med2_l/activation	glut_med3_l/activation	glut_min1_l/activation	glut_min2_l/activation	glut_min3_l/activation	semimem_l/activation	semiten_l/activation	bifemlh_l/activation	bifemsh_l/activation	sar_l/activation	add_long_l/activation	add_brev_l/activation	add_mag1_l/activation	add_mag2_l/activation	add_mag3_l/activation	tfl_l/activation	pect_l/activation	grac_l/activation	glut_max1_l/activation	glut_max2_l/activation	glut_max3_l/activation	iliacus_l/activation	psoas_l/activation	quad_fem_l/activation	gem_l/activation	peri_l/activation	rect_fem_l/activation	vas_med_l/activation	vas_int_l/activation	vas_lat_l/activation	med_gas_l/activation	lat_gas_l/activation	soleus_l/activation	tib_post_l/activation	flex_dig_l/activation	flex_hal_l/activation	tib_ant_l/activation	per_brev_l/activation	per_long_l/activation	per_tert_l/activation	ext_dig_l/activation	ext_hal_l/activation	ercspn_l/activation	intobl_l/activation	extobl_l/activation	glut_med1_r/activation	glut_med2_r/activation	glut_med3_r/activation	glut_min1_r/activation	glut_min2_r/activation	glut_min3_r/activation	semimem_r/activation	semiten_r/activation	bifemlh_r/activation	bifemsh_r/activation	sar_r/activation	add_long_r/activation	add_brev_r/activation	add_mag1_r/activation	add_mag2_r/activation	add_mag3_r/activation	tfl_r/activation	pect_r/activation	grac_r/activation	glut_max1_r/activation	glut_max2_r/activation	glut_max3_r/activation	iliacus_r/activation	psoas_r/activation	quad_fem_r/activation	gem_r/activation	peri_r/activation	rect_fem_r/activation	vas_med_r/activation	vas_int_r/activation	vas_lat_r/activation	med_gas_r/activation	lat_gas_r/activation	soleus_r/activation	tib_post_r/activation	flex_dig_r/activation	flex_hal_r/activation	tib_ant_r/activation	per_brev_r/activation	per_long_r/activation	per_tert_r/activation	ext_dig_r/activation	ext_hal_r/activation	ercspn_r/activation	intobl_r/activation	extobl_r/activation	
          1.69968112	         -2.93017620	          2.33768767	         -5.36937222	          2.12460141	          0.91856526	          0.00137175	         29.38355092	          3.70749601	         -1.81672935	        -16.78596942	         -1.34886508	          6.56890447	        -11.60090774	         -8.29682220	          5.15597135	         -3.28699592	         -4.92699862	          8.44711651	         -0.25434649	          7.06083871	          0.92882263	          9.13558371	         -2.02901283	         -0.49738862	          2.03384204	         -5.28530052	        -13.46994389	          5.47354401	          4.79179249	        -13.45514275	         15.89168547	         17.24628257	         34.98940387	         86.51662706	         86.51662706	          0.05943895	          0.05944097	          0.05000083	          0.05944272	          0.05944257	          0.05002698	          0.11271855	          0.05944416	          0.21964611	          0.05000088	          0.05000192	          0.14115359	          0.30801707	          0.13382501	          0.14826087	          0.10403752	          0.05000056	          0.08397709	          0.10217483	          0.05000299	          0.10834413	          0.15003978	          0.05016673	          0.05000119	          0.15643103	          0.26679447	          0.13196818	          0.05181609	          0.13638594	          0.13341098	          0.12084384	          0.05102884	          0.05000438	          0.05477611	          0.05000012	          0.05000234	          0.05000097	          0.53851870	          0.26305924	          0.16893889	          0.24874785	          0.46763292	          0.22064032	          0.05944188	          0.11514907	          0.10289746	          0.26636503	          0.10006249	          0.07689305	          0.29305269	          0.19970773	          0.11271674	          0.05000383	          0.05000099	          0.05000069	          0.05977435	          0.11310719	          0.08016723	          0.05000579	          0.05000337	          0.05000677	          0.05000207	          0.30680562	          0.08695286	          0.05001649	          0.05002105	          0.05000980	          0.05000535	          0.41573193	          0.62528776	          0.05000244	          0.05000329	          0.05014126	          0.23395701	          0.05000289	          0.05000270	          0.05000232	          0.29551527	          0.41079012	          0.35869659	          0.28512428	          0.27337979	          0.35987347	          0.05000019	          0.05419860	          0.11952184	          0.05000104	          0.05000028	          0.05000100	          0.05000014	          0.05000027	          0.05000054	
          1.71101233	         -2.92803135	          2.43007400	         -5.65150100	          2.14160258	          0.91748467	          0.00116913	         28.72988482	          4.05030444	         -1.57752729	        -16.68384965	         -1.65482341	          6.36720243	        -11.75243984	        -10.16724747	          4.48025771	         -3.80047053	         -5.31274188	          9.43441794	         -0.21330821	          6.30318668	          0.91796572	         10.64069305	         -1.83502565	         -0.70018449	          2.10067855	         -6.13836395	        -13.47116511	          5.26619817	          4.52646386	        -13.46285342	         16.22374925	         16.83914648	         36.12505803	         86.51662706	         86.51662706	          0.05000005	          0.05000018	          0.09781350	          0.05000019	          0.05000022	          0.05000033	          0.09481307	          0.05000202	          0.18475473	          0.05000081	          0.05003855	          0.11873192	          0.25909263	          0.30784337	          0.21174500	          0.12065350	          0.05000193	          0.07066288	          0.13439452	          0.06314018	          0.10322759	          0.12620630	          0.05000040	          0.05942119	          0.40954388	          0.22441339	          0.11100473	          0.05944977	          0.14449547	          0.14772747	          0.12352580	          0.05000088	          0.05000422	          0.05000013	          0.06799580	          0.05002310	          0.05944556	          0.45297338	          0.29194452	          0.20704512	          0.20923402	          0.42710091	          0.18559107	          0.05000004	          0.09685728	          0.08655187	          0.22405226	          0.08416732	          0.06467856	          0.24650085	          0.16798373	          0.09481151	          0.05001425	          0.05000227	          0.05000270	          0.05027927	          0.09514072	          0.15448114	          0.05103151	          0.05948156	          0.05941906	          0.05944248	          0.25806912	          0.07626264	          0.05258744	          0.05001960	          0.05001236	          0.05001988	          0.34969186	          0.58195687	          0.05008574	          0.05944843	          0.05944487	          0.20983889	          0.08025607	          0.11836546	          0.15719158	          0.24857169	          0.34553488	          0.32090621	          0.24626489	          0.22995513	          0.30271299	          0.05000021	          0.05000037	          0.13462368	          0.05000050	          0.05000018	          0.05000083	          0.05402128	          0.05944650	          0.05944187	
          1.72234354	         -2.92218831	          2.52362267	         -5.90234425	          2.15890083	          0.91649986	          0.00098175	         27.96064952	          4.31394892	         -1.31736898	        -16.51074737	         -1.95913656	          6.16064548	        -12.22960036	        -12.13809194	          3.93735327	         -4.45288702	         -5.71389167	         10.37870949	         -0.33096257	          5.34873797	          0.83733631	         12.28834041	         -1.62052658	         -0.91293536	          2.15640674	         -7.01749284	        -13.47752265	          5.11171418	          4.18508500	        -13.46747086	         16.48717373	         16.48413510	         37.23211237	         86.51662706	         86.51662706	          0.23368757	          0.22908083	          0.27276321	          0.33677238	          0.21256216	          0.18369252	          0.09030172	          0.05001043	          0.15540722	          0.07653791	          0.05001342	          0.09987113	          0.21793513	          0.25894174	          0.17810910	          0.10924759	          0.05000190	          0.05945036	          0.11304730	          0.12334229	          0.12325222	          0.10615839	          0.05813392	          0.05000318	          0.34448664	          0.18876499	          0.21199733	          0.05000607	          0.12154213	          0.12426073	          0.10390352	          0.05000171	          0.05000539	          0.05000553	          0.05719462	          0.05000134	          0.05000341	          0.54325045	          0.33858882	          0.17642755	          0.32890052	          0.50933945	          0.18050977	          0.06080454	          0.11874345	          0.07280284	          0.33087191	          0.07079716	          0.05440439	          0.31794961	          0.14129934	          0.07975059	          0.05000564	          0.05000075	          0.05000066	          0.05000059	          0.08002906	          0.12994170	          0.05002381	          0.05003375	          0.05000726	          0.05000353	          0.25148654	          0.06416085	          0.05000426	          0.05001427	          0.05000716	          0.05000412	          0.29414255	          0.54828308	          0.05000116	          0.05000691	          0.05000262	          0.17650572	          0.06751680	          0.09956712	          0.13222403	          0.20908525	          0.29064555	          0.26992918	          0.20714515	          0.19342666	          0.25462670	          0.05000006	          0.09241671	          0.15561970	          0.05000048	          0.05000015	          0.05000047	          0.05000065	          0.05000324	          0.05000020	
          1.73367475	         -2.91489062	          2.60781933	         -6.11680735	          2.17628794	          0.91565913	          0.00077384	         27.14173102	          4.55618475	         -1.05829513	        -16.23049007	         -2.25009569	          5.96411580	        -12.66972401	        -14.24559058	          3.42247495	         -5.25419310	         -6.12137747	         11.28143333	         -0.37344175	          4.22326777	          0.84966280	         14.01216683	         -1.40784270	         -1.12478713	          2.20366558	         -7.87633563	        -13.48265926	          5.00892925	          3.80347313	        -13.47637449	         16.70809797	         16.15957097	         38.28722015	         86.51662706	         86.51662706	          0.32678448	          0.32242216	          0.35550593	          0.28327563	          0.17879812	          0.18798646	          0.07595987	          0.08286769	          0.13072058	          0.06438898	          0.05000201	          0.08400642	          0.18331565	          0.21780917	          0.14986871	          0.15204451	          0.05000112	          0.05001400	          0.09594412	          0.21785484	          0.17788848	          0.14717061	          0.05000030	          0.05000034	          0.28976403	          0.15877931	          0.17832280	          0.05000022	          0.12904942	          0.14918348	          0.10121208	          0.05000010	          0.05000020	          0.05000003	          0.05000005	          0.05000042	          0.05000037	          0.59890059	          0.29371993	          0.16424075	          0.55815479	          0.53719318	          0.29057639	          0.08186681	          0.09988072	          0.06123788	          0.31908094	          0.05955090	          0.05000079	          0.27571642	          0.11885377	          0.06708214	          0.05001057	          0.05000084	          0.05000078	          0.05000070	          0.06731755	          0.12109991	          0.05000130	          0.05000264	          0.05000590	          0.05000286	          0.21154083	          0.05397825	          0.05000421	          0.05001763	          0.05000874	          0.05000434	          0.24741719	          0.50422943	          0.05000124	          0.05000455	          0.05000082	          0.14846732	          0.09960185	          0.10233996	          0.11123593	          0.17587135	          0.24447554	          0.22705002	          0.17423954	          0.16270054	          0.21417868	          0.05000109	          0.10378002	          0.16052749	          0.05000064	          0.10306413	          0.05000117	          0.07608640	          0.05000006	          0.05000014	
